<svg xmlns="http://www.w3.org/2000/svg" viewBox="0 0 24 24" fill="currentColor">
  <path d="M12 2.2c3.2 0 3.6 0 4.9.1 1.2.1 1.9.3 2.4.5.6.2 1 .4 1.4.8.4.4.6.8.8 1.4.2.5.4 1.2.5 2.4.1 1.3.1 1.7.1 4.9s0 3.6-.1 4.9c-.1 1.2-.3 1.9-.5 2.4-.2.6-.4 1-.8 1.4-.4.4-.8.6-1.4.8-.5.2-1.2.4-2.4.5-1.3.1-1.7.1-4.9.1s-3.6 0-4.9-.1c-1.2-.1-1.9-.3-2.4-.5-.6-.2-1-.4-1.4-.8-.4-.4-.6-.8-.8-1.4-.2-.5-.4-1.2-.5-2.4-.1-1.3-.1-1.7-.1-4.9s0-3.6.1-4.9c.1-1.2.3-1.9.5-2.4.2-.6.4-1 .8-1.4.4-.4.8-.6 1.4-.8.5-.2 1.2-.4 2.4-.5 1.3-.1 1.7-.1 4.9-.1m0-2.2c-3.3 0-3.7 0-5 .1-1.3.1-2.3.3-3.1.7-.9.3-1.7.8-2.5 1.6-.8.8-1.2 1.6-1.6 2.5-.4.8-.6 1.8-.7 3.1-.1 1.3-.1 1.7-.1 5s0 3.7.1 5c.1 1.3.3 2.3.7 3.1.3.9.8 1.7 1.6 2.5.8.8 1.6 1.2 2.5 1.6.8.4 1.8.6 3.1.7 1.3.1 1.7.1 5 .1s3.7 0 5-.1c1.3-.1 2.3-.3 3.1-.7.9-.3 1.7-.8 2.5-1.6.8-.8 1.2-1.6 1.6-2.5.4-.8.6-1.8.7-3.1.1-1.3.1-1.7.1-5s0-3.7-.1-5c-.1-1.3-.3-2.3-.7-3.1-.3-.9-.8-1.7-1.6-2.5-.8-.8-1.6-1.2-2.5-1.6-.8-.4-1.8-.6-3.1-.7-1.3-.1-1.7-.1-5-.1z"/>
  <path d="M12 5.8c-3.4 0-6.2 2.8-6.2 6.2s2.8 6.2 6.2 6.2 6.2-2.8 6.2-6.2-2.8-6.2-6.2-6.2zm0 10.3c-2.3 0-4.1-1.9-4.1-4.1 0-2.3 1.9-4.1 4.1-4.1 2.3 0 4.1 1.9 4.1 4.1 0 2.3-1.9 4.1-4.1 4.1z"/>
  <circle cx="18.4" cy="5.6" r="1.4"/>
</svg>
