<svg xmlns="http://www.w3.org/2000/svg" viewBox="0 0 24 24" width="24" height="24">
  <path d="M19 0h-14c-2.75 0-5 2.25-5 5v14c0 2.75 2.25 5 5 5h14c2.75 0 5-2.25 5-5v-14c0-2.75-2.25-5-5-5zm-11.5 19h-2.75v-10.75h2.75v10.75zm-1.375-12.25c-.875 0-1.5-.625-1.5-1.5s.625-1.5 1.5-1.5 1.5.625 1.5 1.5-.625 1.5-1.5 1.5zm12.875 12.25h-2.75v-5.625c0-1.5-.5-2.25-1.625-2.25-.875 0-1.375.625-1.5 1.125-.125.125-.125.375-.125.625v6.125h-2.75v-10.75h2.75v1.625c.5-.75 1.25-1.625 2.75-1.625 1.875 0 3.25 1.375 3.25 3.75v7z" fill="currentColor"/>
</svg>
